<?xml version="1.0" encoding="UTF-8"?>
<svg width="21px" height="12px" viewBox="0 0 21 12" version="1.1" xmlns="http://www.w3.org/2000/svg" xmlns:xlink="http://www.w3.org/1999/xlink">
    <!-- Generator: Sketch 59.1 (86144) - https://sketch.com -->
    <title>Arrow</title>
    <desc>Created with Sketch.</desc>
    <g id="V2" stroke="none" stroke-width="1" fill="none" fill-rule="evenodd">
        <g id="V2Profile01-Copy" transform="translate(-133.000000, -534.000000)" fill="#5C78F2">
            <g id="Group-3" transform="translate(8.000000, 384.000000)">
                <g id="Icon-/-20-/-ArrowWhite" transform="translate(135.500000, 155.667722) scale(-1, 1) rotate(-180.000000) translate(-135.500000, -155.667722) translate(125.000000, 150.000000)">
                    <path d="M15.9641408,0.284960591 L20.6968427,4.72926663 C20.7269859,4.7575764 20.7552782,4.78762458 20.7815346,4.81923755 L20.696646,4.72921802 C20.7357308,4.76592551 20.7713606,4.80526358 20.803343,4.84678839 C20.8210309,4.86937963 20.8375082,4.89278301 20.8529064,4.91686476 C20.8604788,4.92929421 20.8681422,4.94194218 20.8754959,4.95473804 C20.8876965,4.9751949 20.8988147,4.99627602 20.9091253,5.01777286 C20.9162026,5.0335666 20.9232187,5.04932715 20.9297891,5.06525241 C20.9402726,5.08940591 20.9492727,5.11409706 20.9572215,5.13921367 C20.9604813,5.15108443 20.9640461,5.1631762 20.9673624,5.1753362 C20.9888533,5.252632 21,5.33347995 21,5.41677902 C21,5.49971275 20.9889508,5.58021681 20.9681592,5.65706394 C20.9639276,5.67092954 20.9596253,5.685418 20.9549705,5.69979749 C20.9477471,5.72365576 20.9392822,5.74660678 20.929948,5.76914954 C20.9232965,5.78400153 20.9167524,5.7987358 20.9098249,5.81331227 C20.8994,5.83623754 20.8874666,5.8588811 20.8746452,5.88100469 C20.8674551,5.89273387 20.8603983,5.90436083 20.8530831,5.9158542 C20.8371464,5.94140788 20.8195341,5.96633084 20.8007705,5.99041229 C20.7942426,5.99848666 20.7878859,6.00640132 20.7813948,6.01423067 C20.7786566,6.01778683 20.7756495,6.02135677 20.7726165,6.02490629 L20.696646,6.10434003 L20.696646,6.10434003 L16.0647619,10.4540967 C15.8626915,10.643876 15.5980952,10.7387656 15.3330849,10.7387656 C15.0680745,10.7387656 14.8034783,10.643876 14.6009938,10.4540967 C14.196853,10.0745381 14.196853,9.45853327 14.6009938,9.0793636 L17.464,6.389 L1.03519669,6.38900895 C0.463354037,6.38900895 0,5.95383884 0,5.41677902 C0,4.87971921 0.463354037,4.4445491 1.03519669,4.4445491 L17.465,4.444 L14.5003727,1.6596937 C14.0962319,1.28013514 14.0962319,0.664519153 14.5003727,0.284960591 C14.9049275,-0.0949868636 15.56,-0.0949868636 15.9641408,0.284960591 Z" id="Combined-Shape"></path>
                </g>
            </g>
        </g>
    </g>
</svg>