<?xml version="1.0" encoding="UTF-8"?>
<svg width="23px" height="23px" viewBox="0 0 23 23" version="1.1" xmlns="http://www.w3.org/2000/svg" xmlns:xlink="http://www.w3.org/1999/xlink">
    <!-- Generator: Sketch 59.1 (86144) - https://sketch.com -->
    <title>Attention@3x</title>
    <desc>Created with Sketch.</desc>
    <g id="V2" stroke="none" stroke-width="1" fill="none" fill-rule="evenodd">
        <g id="V2Profile01-Copy" transform="translate(-24.000000, -397.000000)">
            <g id="Attention" transform="translate(23.000000, 397.000000)">
                <path d="M11.5416667,8.15235 L11.5416667,15.80435 C11.5416667,16.08035 11.7563333,16.30435 12.0208333,16.30435 C12.2853333,16.30435 12.5,16.08035 12.5,15.80435 L12.5,8.15235 C12.5,7.87585 12.2853333,7.65235 12.0208333,7.65235 C11.7563333,7.65235 11.5416667,7.87585 11.5416667,8.15235" id="Fill-2504" fill="#516EEA"></path>
                <rect id="Rectangle" x="0" y="0" width="24" height="24"></rect>
                <path d="M11.1041875,19.1521 C11.1041875,19.6811 11.5143542,20.1086 12.0208333,20.1086 C12.5263542,20.1086 12.9374792,19.6811 12.9374792,19.1521 C12.9374792,18.6246 12.5263542,18.1956 12.0208333,18.1956 C11.5143542,18.1956 11.1041875,18.6246 11.1041875,19.1521" id="Fill-2505" fill="#516EEA"></path>
                <path d="M2.25455417,22 L12.0209292,1.618 L21.7873042,22 L2.25455417,22 Z M22.9526375,22.1965 L12.4493042,0.2765 C12.2868667,-0.0625 11.7545125,-0.0625 11.592075,0.2765 L1.05040833,22.2765 C0.9761375,22.431 0.984283333,22.615 1.07149167,22.7625 C1.1587,22.91 1.31299167,23 1.4792625,23 L22.5625958,23 C22.56595,22.9995 22.568825,22.9995 22.5721792,23 C22.8366792,23 23.0513458,22.7765 23.0513458,22.5 C23.0513458,22.3855 23.01445,22.2805 22.9526375,22.1965 L22.9526375,22.1965 Z" id="Fill-2506" fill="#516EEA"></path>
            </g>
        </g>
    </g>
</svg>