<?xml version="1.0" encoding="UTF-8"?>
<svg width="12px" height="21px" viewBox="0 0 12 21" version="1.1" xmlns="http://www.w3.org/2000/svg" xmlns:xlink="http://www.w3.org/1999/xlink">
    <!-- Generator: Sketch 59.1 (86144) - https://sketch.com -->
    <title>Bluetooth@2x</title>
    <desc>Created with Sketch.</desc>
    <g id="V2" stroke="none" stroke-width="1" fill="none" fill-rule="evenodd">
        <g id="V2Profile01-Copy" transform="translate(-27.000000, -722.000000)">
            <g id="Bluetooth" transform="translate(21.000000, 720.000000)">
                <path d="M12.8412588,21.5129077 L12.8412588,13.4399958 L16.9566016,17.3246362 L12.8412588,21.5129077 Z M12.8412588,3.4871088 L16.9566016,7.67538027 L12.8412588,11.5512705 L12.8412588,3.4871088 Z M13.0995332,12.4954144 L17.8618406,8.00963697 C17.9479321,7.92869785 17.9977969,7.81538308 17.9999279,7.69594318 C18.0020589,7.57650329 17.9568822,7.46100097 17.8742003,7.37656178 L12.715105,2.12645653 C12.5927869,2.00220404 12.4095229,1.96589081 12.2509782,2.03370467 C12.0924335,2.10151853 11.988868,2.26077172 11.988868,2.43708775 L11.988868,11.4471434 L6.73686214,6.49016901 C6.56382681,6.32741575 6.29447132,6.33791596 6.13464805,6.51641954 C5.97525097,6.69448561 5.98675825,6.97099115 6.15979358,7.13461943 L11.8392734,12.4949769 L6.13805761,17.8653971 C5.96459609,18.0285878 5.95308881,18.3050934 6.11205969,18.483597 C6.27103058,18.661663 6.54123846,18.6734758 6.71427379,18.5098475 L11.988868,13.5414979 L11.988868,22.5624912 C11.988868,22.7392448 12.0924335,22.898498 12.2509782,22.9663118 C12.3038264,22.9894998 12.359658,23 12.4150634,23 C12.525448,23 12.6337017,22.9562491 12.715105,22.8731225 L17.8742003,17.6230172 C17.9568822,17.5390155 18.0020589,17.4239507 17.9999279,17.3045108 C17.9982231,17.1846334 17.9479321,17.0713186 17.8622668,16.9903795 L13.0995332,12.4954144 Z" id="Fill-3440" fill="#4A6CF2"></path>
                <rect id="Rectangle" x="0" y="0" width="24" height="24"></rect>
            </g>
        </g>
    </g>
</svg>