<?xml version="1.0" encoding="UTF-8"?>
<svg width="113px" height="113px" viewBox="0 0 113 113" version="1.1" xmlns="http://www.w3.org/2000/svg" xmlns:xlink="http://www.w3.org/1999/xlink">
    <!-- Generator: Sketch 59.1 (86144) - https://sketch.com -->
    <title>hdpi/COVIDLogo</title>
    <desc>Created with Sketch.</desc>
    <g id="V2" stroke="none" stroke-width="1" fill="none" fill-rule="evenodd">
        <g id="CR01" transform="translate(-131.000000, -210.000000)" fill="#4A6CF2" fill-rule="nonzero">
            <path d="M187.500244,210 C190.662793,210 193.23569,212.572886 193.235934,215.735421 C193.235934,218.25803 191.598281,220.40381 189.33095,221.169672 L189.33095,221.169672 L189.330442,247.089376 C190.407267,247.193024 191.483247,247.387054 192.54917,247.672681 C192.779786,247.734476 193.008665,247.800218 193.235734,247.869851 L197.179968,238.348844 C196.521246,237.774814 195.995294,237.056056 195.651167,236.225274 C195.064931,234.809968 195.064931,233.250909 195.651167,231.835603 C196.861224,228.913955 200.222683,227.521346 203.144832,228.731641 C204.560389,229.317875 205.662815,230.420296 206.249051,231.835603 C206.835042,233.250909 206.835042,234.809968 206.248807,236.225274 C205.33504,238.431581 203.194133,239.76586 200.942665,239.76586 C200.815753,239.76586 200.688597,239.760002 200.561441,239.75146 L200.561441,239.75146 L196.621338,249.264051 C197.803532,249.886381 198.913454,250.62679 199.937042,251.47449 L218.262491,233.149624 C217.201556,231.005065 217.55813,228.33187 219.341243,226.548521 C221.577823,224.312438 225.215804,224.312194 227.452384,226.548521 C228.535773,227.631905 229.13226,229.072106 229.13226,230.604073 C229.13226,232.136285 228.535529,233.576486 227.45214,234.65987 C226.369239,235.743011 224.928788,236.339739 223.396814,236.339739 C222.497203,236.339739 221.629564,236.132287 220.846859,235.743011 L220.846859,235.743011 L202.52325,254.067582 C203.211392,254.90231 203.835035,255.800353 204.386809,256.756059 C204.506041,256.962576 204.621284,257.170907 204.73252,257.380939 L214.250852,253.438371 C214.190813,252.566587 214.326999,251.686505 214.671126,250.855724 C215.257606,249.440417 216.359788,248.337996 217.775345,247.751762 C219.190901,247.165773 220.749722,247.165773 222.165035,247.751762 C223.580348,248.33824 224.682774,249.440661 225.26901,250.855968 C226.479067,253.777616 225.08694,257.139305 222.165035,258.3496 C221.449691,258.64589 220.707744,258.786225 219.977756,258.786225 C218.329608,258.786225 216.743208,258.069175 215.651521,256.820806 L215.651521,256.820806 L206.134719,260.762019 C206.527535,262.035772 206.788286,263.345254 206.913527,264.669668 L232.830768,264.669546 C233.596633,262.402225 235.742422,260.764579 238.265042,260.764579 C241.427591,260.764579 244,263.337464 244,266.5 C244,269.662536 241.427103,272.235421 238.264554,272.235421 C235.741934,272.235421 233.596145,270.597775 232.83028,268.330454 L232.83028,268.330454 L206.913926,268.330825 C206.852717,268.979466 206.758738,269.627133 206.631594,270.271439 C206.499983,270.938182 206.334356,271.594792 206.136136,272.238941 L215.649325,276.178462 C217.224498,274.376808 219.833515,273.68514 222.164303,274.6504 C225.086208,275.86094 226.478335,279.222629 225.268034,282.144276 C224.681798,283.559583 223.579616,284.662004 222.164303,285.248238 C221.456769,285.541354 220.712869,285.688035 219.969458,285.688035 C219.225802,285.688035 218.482147,285.541598 217.774612,285.248482 C216.359056,284.662248 215.25663,283.559827 214.670394,282.144521 C214.326511,281.313739 214.190081,280.433657 214.25012,279.561873 L214.25012,279.561873 L204.73659,275.621865 C204.114487,276.799289 203.373328,277.910412 202.524381,278.936822 L220.846127,297.257233 C221.628832,296.867713 222.496227,296.660505 223.396082,296.660505 C224.928056,296.660505 226.368507,297.257233 227.451652,298.340374 C228.535041,299.423514 229.131528,300.863715 229.131528,302.395927 C229.131528,303.928138 228.534797,305.368339 227.451408,306.451724 C226.333606,307.569765 224.8646,308.128907 223.396082,308.128907 C221.927319,308.129151 220.458801,307.570009 219.340511,306.451724 C217.557398,304.66813 217.201068,301.994935 218.261759,299.850376 L218.261759,299.850376 L199.936462,281.523693 C199.812374,281.626205 199.68689,281.727262 199.560027,281.826832 C199.445042,281.917079 199.312247,281.969014 199.177006,281.984494 C198.652104,282.381496 198.105611,282.751803 197.54049,283.09436 C197.523452,283.108556 197.504382,283.122286 197.484406,283.135325 L197.394518,283.186202 L197.363828,283.201067 L197.34266,283.212695 C197.092193,283.360527 196.838173,283.50296 196.580797,283.639879 L196.580797,283.639879 L200.560709,293.24854 C202.948363,293.088436 205.282811,294.444192 206.248075,296.774482 C206.83431,298.190032 206.83431,299.749091 206.248319,301.164397 C205.661839,302.579704 204.559657,303.682125 203.1441,304.268359 C202.428756,304.564648 201.686809,304.704983 200.956821,304.704983 C198.705109,304.704983 196.564201,303.370948 195.650435,301.164397 C195.064199,299.749091 195.064199,298.190032 195.650191,296.774726 C195.994317,295.9437 196.520514,295.224942 197.179236,294.650911 L197.179236,294.650911 L193.240037,285.13971 C191.963107,285.533285 190.652659,285.791993 189.330788,285.915472 L189.330461,311.830328 C191.597793,312.59619 193.235446,314.74197 193.235446,317.264579 C193.235446,320.427114 190.662549,323 187.5,323 C184.337451,323 181.764554,320.427114 181.764554,317.264579 C181.764554,314.74197 183.402207,312.59619 185.669539,311.830328 L185.669539,311.830328 L185.66964,285.91258 C184.35131,285.787505 183.04167,285.528171 181.762019,285.134271 L177.820764,294.650667 C178.47973,295.224942 179.005683,295.943456 179.349809,296.774482 C179.935801,298.189788 179.935801,299.748847 179.349565,301.164153 C178.435799,303.37046 176.294891,304.704739 174.043179,304.704739 C173.313191,304.704739 172.571488,304.564404 171.8559,304.268114 C168.934239,303.057819 167.541868,299.696374 168.751681,296.774482 C169.717189,294.443948 172.051393,293.088192 174.439291,293.248296 L174.439291,293.248296 L178.379887,283.733232 C177.201244,283.109092 176.092415,282.366726 175.069867,281.519778 L156.742878,299.845739 C157.1324,300.628441 157.339608,301.495832 157.339608,302.395683 C157.339608,303.927894 156.742878,305.368095 155.659489,306.451479 C154.541687,307.569521 153.072681,308.128663 151.604162,308.128663 C150.1354,308.128907 148.666882,307.569765 147.548592,306.451479 C146.465203,305.368339 145.868716,303.927894 145.868716,302.395927 C145.868716,300.863959 146.465447,299.423514 147.548836,298.340374 C148.631737,297.257233 150.072188,296.660505 151.604162,296.660505 C152.503773,296.660505 153.371412,296.867957 154.154117,297.257233 L154.154117,297.257233 L172.481966,278.930199 C171.791533,278.095506 171.168006,277.200089 170.620207,276.251258 C170.499275,276.041795 170.382468,275.830726 170.269799,275.618149 L160.750368,279.561629 C160.810163,280.433413 160.673977,281.313495 160.32985,282.144276 C159.74337,283.559583 158.641189,284.662004 157.225632,285.248238 C156.518097,285.54111 155.774442,285.68779 155.03103,285.68779 C154.287375,285.68779 153.543719,285.54111 152.836185,285.247994 C151.420628,284.66176 150.318202,283.559339 149.731966,282.144032 C149.145975,280.728726 149.145975,279.169667 149.731966,277.754361 C150.318446,276.339054 151.420628,275.236633 152.836185,274.6504 C154.251742,274.06441 155.810807,274.064654 157.225632,274.6504 C158.056417,274.994525 158.775178,275.520475 159.349211,276.179194 L159.349211,276.179194 L168.863674,272.238875 C168.468323,270.9627 168.207581,269.654164 168.083763,268.330847 L142.16972,268.330454 C141.403855,270.597775 139.258066,272.235421 136.735446,272.235421 C133.572897,272.235421 131,269.662536 131,266.5 C131,263.337464 133.572897,260.764579 136.735446,260.764091 C139.258066,260.764091 141.403855,262.401737 142.16972,264.669058 L142.16972,264.669058 L168.090047,264.669644 C168.193857,263.595139 168.387654,262.521494 168.672645,261.457862 C168.73507,261.224882 168.801524,260.993673 168.871949,260.764313 L159.348967,256.820317 C158.774934,257.479037 158.056173,258.004987 157.225388,258.349112 C156.517853,258.642229 155.774198,258.788909 155.030542,258.788909 C154.286887,258.788909 153.543475,258.642473 152.835941,258.349356 C151.420384,257.763123 150.317958,256.660702 149.731722,255.245395 C149.145731,253.830089 149.145731,252.27103 149.731722,250.855724 C150.318202,249.440173 151.420384,248.337752 152.835941,247.751518 C154.250766,247.165529 155.809831,247.165285 157.225388,247.751518 C158.640944,248.337752 159.74337,249.440173 160.329606,250.855479 C160.673489,251.686261 160.809919,252.566343 160.74988,253.438127 L160.74988,253.438127 L170.267112,257.379751 C170.889601,256.198238 171.630068,255.088963 172.477731,254.065977 L154.154117,235.742523 C153.371412,236.131799 152.504017,236.339251 151.604162,236.339251 C150.072188,236.339251 148.631981,235.742523 147.548592,234.659382 C146.465203,233.576242 145.868716,232.135797 145.868716,230.603829 C145.868716,229.071862 146.465447,227.631661 147.548836,226.548276 C149.784928,224.31195 153.423153,224.31195 155.659733,226.548276 C156.743122,227.631661 157.339608,229.071862 157.339608,230.603829 C157.339608,231.50368 157.132156,232.371315 156.742878,233.154017 L156.742878,233.154017 L175.071064,251.480828 C175.904768,250.79386 176.801594,250.171221 177.75591,249.620251 C177.963406,249.500456 178.172477,249.384709 178.383028,249.273022 L174.439291,239.75146 C174.312135,239.760002 174.184735,239.76586 174.058067,239.76586 C171.806356,239.76586 169.665936,238.432069 168.751925,236.225518 C167.541868,233.303382 168.934239,229.941937 171.8559,228.731641 C174.777317,227.521346 178.139508,228.913955 179.349809,231.835847 C179.936045,233.251153 179.936045,234.810212 179.349809,236.225518 C179.005683,237.0563 178.47973,237.775058 177.821008,238.349089 L177.821008,238.349089 L181.763304,247.86525 C183.038807,247.469719 184.346656,247.208672 185.669298,247.084423 L185.669783,221.169672 C183.402451,220.40381 181.764798,218.25803 181.764798,215.735421 C181.764798,212.572886 184.337695,210 187.500244,210 Z M187.500244,315.190065 C186.356328,315.190065 185.425721,316.120667 185.425721,317.264579 C185.425721,318.40849 186.356328,319.339093 187.500244,319.339093 C188.64416,319.339093 189.574767,318.40849 189.574767,317.264579 C189.574767,316.120667 188.64416,315.190065 187.500244,315.190065 Z M151.604162,300.321657 C151.049899,300.321657 150.529071,300.53765 150.137353,300.929367 C149.74539,301.321084 149.529639,301.842153 149.529639,302.396171 C149.529639,302.950188 149.74539,303.471257 150.137109,303.862974 C150.946173,304.67179 152.262396,304.671546 153.070972,303.862974 C153.462935,303.471013 153.678685,302.950188 153.678685,302.396415 C153.678685,301.842641 153.463179,301.321816 153.071704,300.930099 C153.07146,300.929855 153.071216,300.929611 153.070972,300.929367 C152.679009,300.537406 152.158426,300.321657 151.604162,300.321657 Z M223.396326,300.321413 C222.842062,300.321413 222.321235,300.537406 221.929516,300.929123 C221.120696,301.73794 221.120696,303.054158 221.929516,303.862974 C222.738092,304.671546 224.054316,304.67179 224.863135,303.862974 C225.255098,303.471013 225.470849,302.950188 225.470849,302.395927 C225.470849,301.841909 225.255098,301.32084 224.86338,300.929123 C224.471173,300.537162 223.950589,300.321413 223.396326,300.321413 Z M174.053674,296.895048 C173.238997,296.895048 172.464589,297.377555 172.13413,298.175877 C171.696528,299.232415 172.200271,300.448568 173.257057,300.886168 C174.315064,301.324013 175.530002,300.820272 175.967605,299.76349 C176.17945,299.251451 176.17945,298.687428 175.967605,298.175633 C175.755271,297.663594 175.356719,297.265043 174.844678,297.052955 C174.586216,296.945812 174.317749,296.895048 174.053674,296.895048 Z M202.866358,298.175633 C202.428512,297.118851 201.212841,296.615842 200.155811,297.052955 C199.64377,297.265043 199.244973,297.663594 199.032884,298.175633 C198.821038,298.687672 198.821038,299.251451 199.032884,299.76349 C199.470486,300.820028 200.686156,301.323769 201.743431,300.886168 C202.255472,300.67408 202.654268,300.275529 202.866358,299.76349 C203.078203,299.251451 203.078203,298.687672 202.866358,298.175633 Z M187.500244,250.758099 C187.490894,250.758099 187.481546,250.758108 187.4722,250.758124 L186.989462,251.364365 C186.92245,251.448402 186.838685,251.516971 186.743983,251.565992 L186.645851,251.608344 L181.717303,253.336234 L180.599557,256.045602 L181.735661,257.637067 C182.322023,256.690668 183.341163,256.06909 184.471048,255.999238 L184.684121,255.992662 L185.117158,255.992662 C185.537703,255.992662 185.8788,256.333761 185.8788,256.754307 C185.8788,257.139808 185.592184,257.458551 185.220487,257.508998 L185.117158,257.515953 L184.684121,257.515953 C183.921001,257.515953 183.229941,257.966367 182.916631,258.652109 L182.855387,258.802577 L182.836649,258.854831 C183.200522,258.814003 183.568279,258.800749 183.900998,258.788942 C184.112832,258.781477 184.313088,258.774393 184.471373,258.761139 C184.750009,258.73745 186.162464,258.66699 186.58796,259.567041 C186.66337,259.726545 186.735353,259.98195 186.655829,260.300198 C186.660704,260.303473 186.665655,260.306748 186.67053,260.310024 C186.906511,260.467319 187.28996,260.722877 187.568825,260.856712 C187.651395,260.655312 187.79239,260.530009 187.839997,260.491847 C188.02022,260.347424 188.262903,260.246953 188.651913,260.155775 C188.797096,260.12165 188.949288,260.131019 189.08952,260.182816 C189.25687,260.244592 189.510598,260.313299 189.779409,260.386044 C190.57868,260.602525 191.484592,260.847799 191.96516,261.35701 C192.49981,261.923731 192.813867,262.736717 193.09098,263.453954 C193.195716,263.724974 193.294663,263.980989 193.393687,264.192595 C193.449216,264.311195 193.503984,264.433375 193.559513,264.557155 C193.838378,265.179101 194.126689,265.822146 194.597964,266.130263 C194.704833,266.200113 195.040599,266.251605 195.262792,266.28573 C195.825397,266.371957 196.525645,266.47936 196.801159,267.118444 C197.082233,267.770249 196.62802,268.427844 196.478723,268.64402 C196.137549,269.137921 195.69621,269.548946 195.269343,269.946488 C194.284593,270.863525 193.877302,271.344019 194.110159,272.095305 C194.386892,272.988195 194.648161,273.831497 193.633628,274.93546 C193.573681,275.000663 193.517847,275.06023 193.465441,275.115912 C193.164486,275.436444 193.073613,275.533031 192.948539,275.926993 C192.783931,276.445649 192.529746,276.731752 192.325529,276.961716 C192.223992,277.076126 192.143783,277.166467 192.075685,277.28301 C192.031201,277.359182 192.007892,277.475726 191.978262,277.623347 C191.918847,277.92019 191.83742,278.326569 191.506834,278.732414 C190.980486,279.378735 189.834709,280.398223 188.736692,280.398299 C188.511071,280.398375 188.287735,280.355338 188.07194,280.257228 C187.659927,280.069845 187.146528,279.604433 186.461667,277.572236 C186.376583,277.319496 186.24671,277.033546 186.109144,276.730609 C185.685628,275.797805 185.205593,274.740383 185.549966,273.674354 C185.569847,273.612502 185.589652,273.552174 185.609076,273.493064 C185.835763,272.802182 185.939204,272.486906 185.701624,271.917595 C185.664224,271.827941 185.542806,271.694335 185.425425,271.565223 C185.189293,271.305323 184.895345,270.98182 184.781621,270.513742 C184.724827,270.27968 184.714492,270.068872 184.713371,269.888455 L184.713753,269.651159 C184.711944,269.429574 184.693623,269.405313 184.604445,269.3218 C184.394972,269.125733 184.18809,269.141882 183.535068,269.303443 C183.29825,269.362095 183.05351,269.422652 182.791022,269.453426 C181.179835,269.642942 179.670261,268.995326 178.754599,267.721347 C177.80763,266.403721 177.663285,264.645515 178.377929,263.132812 C178.702954,262.44513 179.160443,261.930282 179.602925,261.432497 C179.687476,261.337434 179.772788,261.241457 179.858024,261.143195 C179.956058,261.030308 180.09789,260.828985 180.248101,260.615779 C180.54171,260.199095 180.794355,259.851918 181.046089,259.591948 L181.172065,259.469312 L179.114816,256.587566 C178.98417,256.404492 178.94217,256.174968 178.995818,255.960347 L179.030646,255.854562 L180.439216,252.439916 L180.444016,252.429919 C179.50836,252.901067 178.62584,253.462842 177.808058,254.10364 L177.775181,254.015766 C178.22567,255.108972 178.033278,256.364359 177.290987,257.271656 L177.154304,257.42805 L176.318471,258.323682 L174.244844,261.943764 C174.208536,262.00714 174.163391,262.064794 174.110923,262.115078 L174.026917,262.184773 L172.689187,263.141343 L173.62313,264.511223 C173.769456,264.725877 173.796344,265.000173 173.694426,265.239048 C173.592509,265.477848 173.375952,265.648474 173.119786,265.691359 C173.113464,265.692425 172.47423,265.799447 171.831644,265.894434 L171.769417,265.90369 C171.762011,266.101559 171.758275,266.300352 171.758275,266.5 C171.758275,266.643707 171.760211,266.78697 171.764058,266.929764 C171.887452,266.931488 172.008895,266.964428 172.117648,267.025383 L172.206333,267.083557 L175.523465,269.605618 L177.242664,269.941537 C177.909244,270.071867 178.488531,270.482664 178.832142,271.068504 C179.175753,271.65442 179.251392,272.36046 179.03971,273.005791 C178.994677,273.143144 178.985476,273.286884 179.012184,273.42687 L179.038949,273.530998 L179.280261,274.2736 C179.667004,275.464495 179.056309,276.744234 177.911097,277.204134 L177.758728,277.259397 L177.429894,277.36619 L177.227756,278.419034 C179.986828,280.800236 183.578368,282.241901 187.500244,282.241901 C190.788696,282.241901 193.844899,281.228317 196.372843,279.497161 L196.436095,279.499994 C196.065892,279.499994 195.589468,279.330903 195.136368,278.673274 C194.536619,277.802961 194.907249,276.78774 195.155337,276.187126 L195.197622,276.085554 L195.205269,276.06739 C195.266371,275.921146 195.258571,275.840541 195.224846,275.608 C195.185845,275.339835 195.132468,274.97251 195.275471,274.50821 C195.505807,273.759684 196.108793,273.463065 196.549045,273.246506 C196.733191,273.155922 196.923761,273.062142 196.997939,272.975144 C197.130007,272.820247 197.256952,272.539609 197.37969,272.268247 C197.452645,272.106958 197.528123,271.940134 197.611937,271.782664 C197.728218,271.564329 197.936743,271.419797 198.170193,271.383801 L198.271573,271.375121 L198.374827,271.380338 C198.651284,271.414015 198.885022,271.597488 198.989999,271.854656 L199.023162,271.9544 L199.391071,273.368038 C199.418142,273.471874 199.423706,273.57992 199.407922,273.685433 L199.38503,273.789853 L198.48556,276.880072 C198.328008,277.421304 198.158866,277.873996 197.975061,278.24248 C201.205169,275.356962 203.242213,271.161858 203.242213,266.5 C203.242213,266.318106 203.239112,266.136922 203.232959,265.956499 C203.128935,265.889038 203.043797,265.795977 202.984508,265.68587 L202.939315,265.585022 L201.903759,262.737478 L201.87429,262.67456 L201.87429,262.67456 L201.834138,262.61804 L200.895777,261.519409 C200.840362,261.454511 200.765966,261.410393 200.684253,261.39239 L200.600535,261.38329 L200.236814,261.38329 L200.277337,261.444151 C200.478812,261.746326 200.438898,262.148439 200.182199,262.405215 C199.261078,263.3262 198.145828,264.067649 196.939302,264.563614 L196.608063,264.692742 L196.034108,264.904348 C195.710941,265.023908 195.35273,264.91012 195.155102,264.638506 L195.095442,264.542225 L193.124343,260.7666 C193.08646,260.694033 193.06063,260.616084 193.047618,260.535821 L193.037812,260.414075 L193.037812,259.880261 L191.974301,258.865114 L190.852746,258.470923 C190.455891,258.331452 190.247256,257.896737 190.386727,257.499804 C190.514505,257.136089 190.890369,256.930211 191.257981,257.006028 L191.357842,257.033783 L192.634101,257.482285 C192.702097,257.506203 192.7662,257.539566 192.824559,257.581269 L192.907558,257.64994 L194.325345,259.003443 C194.445818,259.11831 194.524415,259.268766 194.551035,259.430901 L194.561097,259.55432 L194.561097,260.227149 L196.135569,263.243033 C196.935373,262.941639 197.692605,262.512934 198.366644,261.982891 L198.650307,261.749602 L198.534068,261.575091 C198.307914,261.235973 198.286891,260.801944 198.479225,260.442563 C198.650188,260.123182 198.96361,259.911232 199.317523,259.868074 L199.451939,259.859923 L200.600535,259.859923 C201.10448,259.859923 201.583931,260.057669 201.939989,260.407684 L202.05397,260.529933 L202.077268,260.556396 C199.727277,254.814025 194.078438,250.758099 187.500244,250.758099 Z M155.030298,277.873462 C154.761342,277.873462 154.492631,277.926423 154.23661,278.03259 C153.724569,278.244678 153.325772,278.643229 153.113683,279.155268 C152.901838,279.667307 152.901838,280.231086 153.113683,280.743125 C153.326017,281.255164 153.724569,281.653715 154.23661,281.865803 C154.748407,282.077404 155.311945,282.077892 155.82423,281.865803 C156.336271,281.653715 156.735068,281.255164 156.947157,280.743125 C157.159247,280.23133 157.159247,279.667307 156.947157,279.155268 L156.947157,279.155268 C156.734824,278.643229 156.336271,278.244678 155.82423,278.03259 C155.56821,277.926423 155.299498,277.873462 155.030298,277.873462 Z M219.972875,277.874683 C219.158197,277.874683 218.38379,278.35719 218.053087,279.155268 C217.841241,279.667307 217.841241,280.231086 218.053087,280.743125 C218.26542,281.255164 218.663973,281.653715 219.176014,281.865803 C219.687567,282.077648 220.251349,282.077892 220.763878,281.865803 C221.275675,281.653471 221.674472,281.25492 221.886317,280.743125 C222.324163,279.686099 221.82042,278.47019 220.763878,278.032346 C220.505173,277.925447 220.236705,277.874683 219.972875,277.874683 Z M184.598275,260.27925 L184.598275,260.27925 C184.40358,260.295551 184.185576,260.303321 183.954852,260.311471 C183.379145,260.331885 182.590614,260.35984 182.250887,260.551033 C182.084071,260.654779 181.69986,261.200172 181.49351,261.493054 C181.320676,261.738557 181.157212,261.970425 181.008677,262.14166 C180.919403,262.244492 180.83013,262.344887 180.741694,262.444444 C180.336765,262.899954 179.98706,263.293535 179.755573,263.783398 C179.277366,264.795726 179.367935,265.963979 179.991858,266.832113 C180.588284,267.662085 181.543631,268.065797 182.613694,267.940418 C182.780967,267.920766 182.969721,267.873996 183.16952,267.824636 C183.820027,267.663761 184.802949,267.420695 185.645867,268.209687 C186.197749,268.726485 186.236827,269.278657 186.237536,269.673586 L186.237268,269.909886 C186.238712,269.999538 186.244298,270.080703 186.262173,270.154286 C186.284187,270.244778 186.427009,270.401998 186.553073,270.540707 C186.747845,270.755208 186.968819,270.998273 187.107605,271.330917 C187.563417,272.423226 187.317382,273.173446 187.056722,273.967921 C187.037984,274.024822 187.018941,274.083017 186.999669,274.142584 C186.836509,274.647529 187.171894,275.386399 187.49631,276.100894 C187.643474,276.425007 187.795665,276.760164 187.905352,277.085876 C188.350196,278.406169 188.6446,278.787715 188.725876,278.874856 C188.797096,278.879121 189.006112,278.848043 189.36412,278.620746 C189.749321,278.376004 190.124543,278.017386 190.325713,277.770436 C190.414072,277.661967 190.439666,277.549003 190.484836,277.323914 C190.530615,277.095169 190.587744,276.810438 190.760502,276.514738 C190.904695,276.26794 191.061076,276.09183 191.186607,275.950454 C191.343598,275.773735 191.430053,275.676387 191.496779,275.466228 C191.726514,274.742592 192.004008,274.447197 192.355312,274.073191 C192.404138,274.021242 192.45624,273.965788 192.51215,273.904927 C192.922335,273.45871 192.910453,273.369741 192.655353,272.546473 C192.114914,270.802968 193.288417,269.71005 194.231349,268.831937 C194.601468,268.487258 194.951782,268.161089 195.197817,267.817857 C195.13947,267.808259 195.082036,267.799423 195.031915,267.79173 C194.617388,267.728126 194.147636,267.656143 193.764415,267.405613 C192.919289,266.853213 192.52091,265.964588 192.169453,265.180624 C192.117351,265.064538 192.066088,264.949899 192.013986,264.838611 C191.892644,264.579245 191.78448,264.299541 191.669994,264.003155 C191.443383,263.416706 191.186607,262.751951 190.857164,262.402702 C190.671686,262.206178 189.832196,261.97888 189.381182,261.856776 C189.250014,261.821203 189.122045,261.786545 189.000247,261.751734 C188.964294,261.819731 188.92008,261.879975 188.871669,261.931269 L188.796411,262.001351 L188.764114,262.033724 C188.6267,262.173652 188.30594,262.502183 187.729472,262.464782 C187.095569,262.424411 186.420763,261.974614 185.82548,261.577757 C185.614941,261.437372 185.416056,261.304756 185.273158,261.228279 C185.062314,261.115468 184.916597,260.910184 184.879959,260.673822 C184.859088,260.539454 184.874703,260.40402 184.922767,260.280621 L184.758693,260.273566 Z M197.019504,276.436585 L197.598172,274.448418 C197.465186,274.526841 197.333424,274.591622 197.213745,274.650556 C196.943796,274.783391 196.764621,274.877717 196.734644,274.974927 C196.698167,275.093185 196.708567,275.179247 196.737703,275.379514 C196.778012,275.657519 196.831736,276.026807 196.679471,276.497123 L196.612288,276.678246 L196.604564,276.696488 C196.460031,277.042375 196.241625,277.564986 196.387765,277.77718 C196.404436,277.801424 196.420036,277.822628 196.434413,277.841337 C196.549545,277.681013 196.742544,277.334837 196.963666,276.622423 L197.019504,276.436585 L197.598172,274.448418 Z M171.923287,268.782394 C172.390355,271.984429 173.824977,274.876864 175.919909,277.152456 L176.01843,276.637527 C176.064085,276.399051 176.220139,276.198716 176.435357,276.094899 L176.531066,276.056486 L177.287986,275.810526 C177.697556,275.677424 177.936884,275.259523 177.857868,274.846973 L177.831396,274.744116 L177.590084,274.001589 C177.433703,273.52041 177.434465,273.011808 177.59214,272.530933 C177.668769,272.297009 177.642566,272.051353 177.518025,271.839062 C177.414241,271.662088 177.256978,271.533357 177.067615,271.468033 L176.950316,271.436568 L175.057293,271.066676 C174.98102,271.051797 174.907726,271.025374 174.839825,270.988489 L174.742323,270.925453 Z M136.735446,264.425486 C135.59153,264.425486 134.660923,265.356089 134.660923,266.5 C134.660923,267.643911 135.59153,268.574514 136.735446,268.574514 C137.879362,268.574514 138.809969,267.643911 138.809969,266.5 C138.809969,265.356089 137.879362,264.425486 136.735446,264.425486 Z M238.265042,264.425486 C237.121126,264.425486 236.190519,265.356089 236.190519,266.5 C236.190519,267.643911 237.121126,268.574514 238.265042,268.574514 C239.408959,268.574514 240.339565,267.643911 240.339565,266.5 C240.339565,265.356089 239.408959,264.425486 238.265042,264.425486 Z M176.493186,255.258255 L176.374242,255.374046 C174.719176,257.029104 173.429895,259.049945 172.639596,261.30337 L173.005757,261.042267 L175.040459,257.489902 L175.088467,257.416329 L175.088467,257.416329 L175.144586,257.348755 L176.040596,256.388757 C176.331715,256.076729 176.487878,255.670893 176.493186,255.258255 Z M188.433733,255.949471 L188.546049,255.975292 L188.599093,255.991084 C189.008589,256.113333 189.224143,256.495137 189.080493,256.843887 C188.967019,257.119233 188.663374,257.291667 188.338983,257.291667 C188.281407,257.291667 188.223238,257.286254 188.16536,257.275033 L188.078872,257.253794 L188.025907,257.238003 C187.616411,257.115686 187.400857,256.733949 187.544507,256.3852 C187.675098,256.068216 188.057804,255.887933 188.433733,255.949471 Z M155.030786,250.975069 C154.761586,250.975069 154.492875,251.02803 154.236854,251.134197 C153.724813,251.346285 153.326017,251.74508 153.114171,252.256875 L153.114171,252.256875 C152.902082,252.768914 152.902082,253.332693 153.113927,253.844732 C153.326261,254.356771 153.724813,254.755322 154.236854,254.96741 C154.749139,255.179499 155.312677,255.179499 155.824474,254.96741 C156.336515,254.755078 156.735068,254.356527 156.947157,253.844732 C157.159247,253.332693 157.159247,252.768914 156.947402,252.256875 C156.735068,251.744836 156.336515,251.346285 155.824474,251.134197 C155.568454,251.02803 155.299742,250.975069 155.030786,250.975069 Z M219.97019,250.975069 C219.70099,250.975069 219.432278,251.02803 219.176258,251.134197 C218.664217,251.346285 218.26542,251.744836 218.053331,252.256875 C217.841241,252.76867 217.841241,253.332693 218.053575,253.844732 C218.491177,254.901514 219.707092,255.404767 220.764122,254.96741 C221.820664,254.52981 222.324407,253.313657 221.886805,252.256875 L221.886805,252.256875 L221.809059,252.090498 C221.584506,251.658571 221.219053,251.32272 220.764122,251.134197 C220.508102,251.02803 220.239146,250.975069 219.97019,250.975069 Z M175.967605,233.236754 C175.530002,232.180216 174.314332,231.676475 173.257057,232.114076 C172.200271,232.551676 171.696528,233.767585 172.134374,234.824611 C172.571977,235.881149 173.787891,236.385134 174.844678,235.947045 C175.356719,235.734957 175.755515,235.336406 175.967605,234.824367 C176.17945,234.312572 176.17945,233.748793 175.967605,233.236754 Z M200.952427,231.955924 C200.13775,231.955924 199.363343,232.438432 199.032884,233.23651 C198.821038,233.748549 198.821038,234.312572 199.032884,234.824123 C199.245217,235.336162 199.64377,235.734713 200.155811,235.946801 C201.212841,236.38489 202.428512,235.881149 202.866358,234.824123 C203.078203,234.312328 203.078203,233.748549 202.866358,233.23651 C202.654024,232.724471 202.255472,232.32592 201.743431,232.113832 C201.48497,232.006689 201.216502,231.955924 200.952427,231.955924 Z M151.604162,228.53078 C151.07284,228.53078 150.541519,228.732862 150.137353,229.13727 L150.137353,229.13727 L150.013108,229.272565 C149.700109,229.64538 149.529639,230.111614 149.529639,230.604073 C149.529639,231.158091 149.74539,231.67916 150.137109,232.070877 C150.529315,232.462838 151.049899,232.679076 151.604162,232.679076 C152.158426,232.679076 152.679253,232.463082 153.070972,232.071365 C153.462935,231.679404 153.678685,231.158579 153.678685,230.604317 C153.678685,230.0503 153.462935,229.529231 153.071216,229.137514 C152.666806,228.733106 152.135484,228.53078 151.604162,228.53078 Z M223.396326,228.530536 C222.865004,228.530536 222.333682,228.732618 221.929516,229.137026 C221.120696,229.945842 221.120696,231.26206 221.929516,232.070877 C222.321479,232.462838 222.842062,232.678587 223.396326,232.678587 C223.950589,232.678587 224.471417,232.462594 224.863135,232.070877 C225.255098,231.678916 225.470849,231.158091 225.470849,230.603829 C225.470849,230.049812 225.255098,229.528743 224.86338,229.137026 L224.86338,229.137026 L224.723878,229.009781 C224.340898,228.690398 223.868612,228.530536 223.396326,228.530536 Z M187.500244,213.660907 C186.356328,213.660907 185.425721,214.59151 185.425721,215.735421 C185.425721,216.879333 186.356328,217.809935 187.500244,217.809935 C188.64416,217.809935 189.574767,216.879333 189.574767,215.735421 C189.574767,214.59151 188.64416,213.660907 187.500244,213.660907 Z" id="COVIDLogo"></path>
        </g>
    </g>
</svg>