<?xml version="1.0" encoding="UTF-8"?>
<svg width="48px" height="48px" viewBox="0 0 48 48" version="1.1" xmlns="http://www.w3.org/2000/svg" xmlns:xlink="http://www.w3.org/1999/xlink">
    <!-- Generator: Sketch 59.1 (86144) - https://sketch.com -->
    <title>Completely_Anonymous</title>
    <desc>Created with Sketch.</desc>
    <g id="V2" stroke="none" stroke-width="1" fill="none" fill-rule="evenodd">
        <g id="CR06" transform="translate(-164.000000, -83.000000)">
            <g id="Completely_Anonymous" transform="translate(147.000000, 66.000000)">
                <g id="Group-4">
                    <rect id="Rectangle" x="0" y="0" width="81" height="81"></rect>
                </g>
                <g id="Fill-1173-+-Fill-1174-+-Fill-1175" transform="translate(17.000000, 16.000000)" fill="#516EEA">
                    <path d="M10.9766,13.9995 C10.9766,13.8375 10.9906,13.6795 10.9966,13.5185 C11.9346,13.8345 12.9046,13.9995 13.9766,13.9995 C16.7256,13.9995 19.7376,12.6925 21.4456,10.8995 C23.0396,13.1185 24.9196,14.1705 27.3076,14.1705 C27.8366,14.1705 28.3946,14.1115 28.9756,14.0095 C28.9716,20.0705 24.9366,24.9995 19.9766,24.9995 C15.0146,24.9995 10.9766,20.0645 10.9766,13.9995 M19.9766,2.9995 C24.3836,2.9995 28.0536,6.8945 28.8216,12.0125 C28.8096,12.0155 28.7986,12.0155 28.7876,12.0175 C25.8846,12.5765 24.0836,11.6315 22.3756,8.6445 L21.4676,7.0545 L20.6216,8.6775 C19.6976,10.4475 16.5926,11.9995 13.9766,11.9995 C12.9596,11.9995 12.0856,11.8305 11.2246,11.4775 C12.1606,6.6255 15.7256,2.9995 19.9766,2.9995 M30.9766,13.9995 C30.9766,6.8315 26.0416,0.9995 19.9766,0.9995 C13.9106,0.9995 8.9766,6.8315 8.9766,13.9995 C8.9766,18.5635 10.9816,22.5785 13.9996,24.8985 L13.9996,29.2945 L4.6436,32.6355 C1.8666,33.6275 -0.0004,36.2775 -0.0004,39.2285 L-0.0004,44.9995 L24.9996,44.9995 L24.9996,42.9995 L1.9996,42.9995 L1.9996,39.2285 C1.9996,37.1205 3.3326,35.2285 5.3166,34.5195 L15.9996,30.7045 L15.9996,26.1065 C17.2356,26.6755 18.5736,26.9995 19.9766,26.9995 C21.3976,26.9995 22.7516,26.6685 23.9996,26.0865 L23.9996,29.9995 L25.9996,29.9995 L25.9996,24.8645 C28.9936,22.5385 30.9766,18.5405 30.9766,13.9995" id="Fill-1173"></path>
                    <path d="M46,47 L32,47 L32,36 L46,36 L46,47 Z M34,33 C34,30.243 36.243,28 39,28 C41.757,28 44,30.243 44,33 L44,34 L34,34 L34,33 Z M47,34 L46,34 L46,33 C46,29.14 42.86,26 39,26 C35.14,26 32,29.14 32,33 L32,34 L31,34 C30.448,34 30,34.448 30,35 L30,48 C30,48.552 30.448,49 31,49 L47,49 C47.552,49 48,48.552 48,48 L48,35 C48,34.448 47.552,34 47,34 L47,34 Z" id="Fill-1174"></path>
                    <path d="M39,38 C37.894,38 37,38.894 37,40 C37,40.758 37.427,41.411 38.05,41.75 C38.029,41.832 38,41.912 38,42 L38,44 C38,44.552 38.448,45 39,45 C39.552,45 40,44.552 40,44 L40,42 C40,41.911 39.971,41.832 39.949,41.75 C40.572,41.41 41,40.758 41,40 C41,38.894 40.103,38 39,38" id="Fill-1175"></path>
                </g>
            </g>
        </g>
    </g>
</svg>