<?xml version="1.0" encoding="UTF-8"?>
<svg width="51px" height="53px" viewBox="0 0 51 53" version="1.1" xmlns="http://www.w3.org/2000/svg" xmlns:xlink="http://www.w3.org/1999/xlink">
    <!-- Generator: Sketch 59.1 (86144) - https://sketch.com -->
    <title>Connect_With_Bluetooth</title>
    <desc>Created with Sketch.</desc>
    <g id="V2" stroke="none" stroke-width="1" fill="none" fill-rule="evenodd">
        <g id="CR07-iOS" transform="translate(-162.000000, -81.000000)">
            <g id="Connect_With_Bluetooth" transform="translate(147.000000, 66.000000)">
                <g id="Group-4">
                    <rect id="Rectangle" x="0" y="0" width="81" height="81"></rect>
                </g>
                <g id="Group" transform="translate(15.000000, 15.000000)">
                    <path d="M2.125,21.25 C2.125,20.55725 2.730625,19.7529375 3.3968125,19.56275 L9.5625,17.801125 L9.5625,15.691 C10.236125,15.90775 10.9490625,16.0278125 11.6875,16.0278125 C12.4259375,16.0278125 13.138875,15.90775 13.8125,15.691 L13.8125,17.801125 L19.9760625,19.56275 C20.6433125,19.7529375 21.25,20.55725 21.25,21.25 L12.75,21.25 L10.625,21.25 L2.125,21.25 Z M6.3824375,8.18125 C8.26625,8.7518125 10.673875,8.52125 12.577875,7.197375 C13.2653125,7.8763125 14.184375,8.327875 15.2266875,8.480875 C15.4859375,8.5201875 15.7430625,8.53825 15.997,8.53825 C16.339125,8.53825 16.6653125,8.4925625 16.980875,8.42775 C16.7885625,11.4824375 14.490375,13.9028125 11.6875,13.9028125 C8.8091875,13.9028125 6.4631875,11.3506875 6.3824375,8.18125 L6.3824375,8.18125 Z M11.6875,2.125 C14.076,2.125 16.1000625,3.8813125 16.76625,6.29 C16.439,6.3951875 16.011875,6.4504375 15.5369375,6.37925 C15.04925,6.307 14.161,6.0551875 13.6860625,5.17225 C13.5266875,4.8758125 13.236625,4.6718125 12.905125,4.624 C12.5725625,4.573 12.2368125,4.685625 11.9988125,4.923625 C10.44225,6.479125 8.1121875,6.598125 6.6884375,6.03925 C7.4236875,3.7623125 9.384,2.125 11.6875,2.125 L11.6875,2.125 Z M12.75,23.375 L23.375,23.375 L23.375,21.25 C23.375,19.6084375 22.13825,17.9700625 20.5604375,17.5195625 L15.9375,16.198875 L15.9375,14.58175 C17.8616875,13.1314375 19.125,10.7301875 19.125,8.013375 C19.125,3.5944375 15.78875,0 11.6875,0 C7.58625,0 4.25,3.5944375 4.25,8.013375 C4.25,10.7301875 5.5133125,13.1314375 7.4375,14.58175 L7.4375,16.198875 L2.8124375,17.5195625 C1.2356875,17.971125 0,19.6095 0,21.25 L0,23.375 L10.625,23.375 L12.75,23.375 Z" id="Fill-1164" fill="#4A6CF2"></path>
                    <path d="M40.375,21.25 L38.25,21.25 L29.75,21.25 C29.75,20.55725 30.355625,19.7529375 31.0218125,19.56275 L37.1875,17.801125 L37.1875,15.691 C37.861125,15.90775 38.5740625,16.0278125 39.3125,16.0278125 C40.0509375,16.0278125 40.763875,15.90775 41.4375,15.691 L41.4375,17.801125 L47.6010625,19.56275 C48.2683125,19.7529375 48.875,20.55725 48.875,21.25 L40.375,21.25 Z M34.0074375,8.18125 C35.89125,8.7518125 38.298875,8.52125 40.2018125,7.197375 C40.887125,7.87525 41.7998125,8.32575 42.8346875,8.4776875 C43.0896875,8.5159375 43.343625,8.534 43.5933125,8.534 C43.9460625,8.534 44.2818125,8.485125 44.6069375,8.4139375 C44.4199375,11.475 42.119625,13.9028125 39.3125,13.9028125 C36.4341875,13.9028125 34.0881875,11.3506875 34.0074375,8.18125 L34.0074375,8.18125 Z M39.3125,2.125 C41.6956875,2.125 43.717625,3.873875 44.3880625,6.2740625 C44.0608125,6.3866875 43.6273125,6.4461875 43.143875,6.3760625 C42.6625625,6.304875 41.7849375,6.054125 41.3110625,5.17225 C41.1516875,4.8758125 40.861625,4.6718125 40.530125,4.624 C40.198625,4.573 39.8618125,4.685625 39.6238125,4.923625 C38.06725,6.479125 35.7371875,6.598125 34.3134375,6.03925 C35.0486875,3.7623125 37.009,2.125 39.3125,2.125 L39.3125,2.125 Z M48.1854375,17.5195625 L43.5625,16.198875 L43.5625,14.58175 C45.4866875,13.1314375 46.75,10.7301875 46.75,8.013375 C46.75,3.5944375 43.41375,0 39.3125,0 C35.21125,0 31.875,3.5944375 31.875,8.013375 C31.875,10.7301875 33.1383125,13.1314375 35.0625,14.58175 L35.0625,16.198875 L30.4374375,17.5195625 C28.8606875,17.971125 27.625,19.6095 27.625,21.25 L27.625,23.375 L38.25,23.375 L40.375,23.375 L51,23.375 L51,21.25 C51,19.6084375 49.76325,17.9700625 48.1854375,17.5195625 L48.1854375,17.5195625 Z" id="Fill-1165" fill="#4A6CF2"></path>
                    <path d="M14.5636875,32.6261875 C14.979125,32.21075 14.979125,31.53925 14.5636875,31.1238125 L9.2511875,25.8113125 C8.83575,25.395875 8.16425,25.395875 7.7488125,25.8113125 C7.333375,26.22675 7.333375,26.89825 7.7488125,27.3136875 L13.0613125,32.6261875 C13.2685,32.833375 13.5405,32.9375 13.8125,32.9375 C14.0845,32.9375 14.3565,32.833375 14.5636875,32.6261875" id="Fill-1167" fill="#4A6CF2"></path>
                    <path d="M41.7488125,25.8113125 L36.4363125,31.1238125 C36.020875,31.53925 36.020875,32.21075 36.4363125,32.6261875 C36.6435,32.833375 36.9155,32.9375 37.1875,32.9375 C37.4595,32.9375 37.7315,32.833375 37.9386875,32.6261875 L43.2511875,27.3136875 C43.666625,26.89825 43.666625,26.22675 43.2511875,25.8113125 C42.83575,25.395875 42.16425,25.395875 41.7488125,25.8113125" id="Fill-1168" fill="#4A6CF2"></path>
                    <g id="Group-5" transform="translate(19.125000, 29.750000)" fill="#516EEA" fill-rule="nonzero">
                        <g id="Group-4">
                            <path d="M12.9766481,6.54691042 C12.9766481,6.24767382 12.8603079,5.9606986 12.653068,5.74904345 L7.59870098,0.586992926 C7.34744043,0.330671262 6.99070194,0.213312085 6.64025206,0.271115878 C6.28980226,0.329211515 5.98794661,0.556047519 5.82901504,0.880682749 C5.7521219,1.0371616 5.71238899,1.20998899 5.71238899,1.38515188 L5.71238899,8.98488598 L2.54404804,5.74904345 C2.1127032,5.30850872 1.41323274,5.30850872 0.981602067,5.74904345 C0.550257146,6.18987003 0.550257146,6.90424272 0.981602067,7.3450693 L5.25503194,11.7092529 L0.981602067,16.0734363 C0.550257146,16.5142629 0.550257146,17.2286356 0.981602067,17.6694623 C1.41323274,18.1099969 2.1127032,18.1099969 2.54404804,17.6694623 L5.71238899,14.4336197 L5.71267482,22.0336458 C5.71267482,22.4899451 5.98165792,22.901286 6.39470855,23.0761569 C6.53134393,23.1339607 6.67483975,23.1619867 6.81719209,23.1619867 C7.10475537,23.1619867 7.38745918,23.047255 7.59870098,22.8315127 L12.653068,17.6691704 C12.8603079,17.4575151 12.976934,17.1705399 12.976934,16.8713033 C12.976934,16.5720667 12.8605938,16.2850915 12.653068,16.0734363 L8.37992397,11.7092529 L12.653068,7.34477738 C12.8603079,7.13341415 12.9766481,6.846439 12.9766481,6.54691042 L12.9766481,6.54691042 Z M10.3093991,16.8713033 L7.92199526,19.3095708 L7.92199526,14.4330358 L10.3093991,16.8713033 Z M7.92199526,8.9851779 L7.92199526,4.10893485 L10.3093991,6.54691042 L7.92199526,8.9851779 Z" id="Shape"></path>
                        </g>
                    </g>
                </g>
            </g>
        </g>
    </g>
</svg>