<?xml version="1.0" encoding="UTF-8"?>
<svg width="20px" height="20px" viewBox="0 0 20 20" version="1.1" xmlns="http://www.w3.org/2000/svg" xmlns:xlink="http://www.w3.org/1999/xlink">
    <!-- Generator: Sketch 59.1 (86144) - https://sketch.com -->
    <title>@3xError</title>
    <desc>Created with Sketch.</desc>
    <g id="V2" stroke="none" stroke-width="1" fill="none" fill-rule="evenodd">
        <g id="CR02.6" transform="translate(-32.000000, -501.000000)" fill="#DA291C">
            <g id="Error" transform="translate(32.000000, 501.000000)">
                <g id="Icon/20/Error">
                    <g id="Group-2">
                        <path d="M10,20 C4.4771525,20 0,15.5228475 0,10 C0,4.4771525 4.4771525,0 10,0 C15.5228475,0 20,4.4771525 20,10 C20,15.5228475 15.5228475,20 10,20 Z M10,18.3333333 C14.6023729,18.3333333 18.3333333,14.6023729 18.3333333,10 C18.3333333,5.39762709 14.6023729,1.66666667 10,1.66666667 C5.39762709,1.66666667 1.66666667,5.39762709 1.66666667,10 C1.66666667,14.6023729 5.39762709,18.3333333 10,18.3333333 Z" id="Oval" fill-rule="nonzero"></path>
                        <path d="M11.036,14.044 C11.036,14.544 10.636,14.944 10.136,14.944 C9.636,14.944 9.236,14.544 9.236,14.044 C9.236,13.544 9.636,13.1582857 10.136,13.1582857 C10.636,13.1582857 11.036,13.544 11.036,14.044 Z M11.136,6.45828571 C11.136,6.95828571 11.0645714,7.52971429 11.0217143,7.92971429 L10.636,11.3582857 C10.6074286,11.6582857 10.4788571,11.9011429 10.136,11.9011429 C9.80742857,11.9011429 9.67885714,11.6582857 9.65028571,11.3582857 L9.26457143,7.92971429 C9.22171429,7.52971429 9.136,6.95828571 9.136,6.45828571 C9.136,5.50114286 9.45028571,4.944 10.136,4.944 C10.8217143,4.944 11.136,5.50114286 11.136,6.45828571 Z" id="!"></path>
                    </g>
                </g>
            </g>
        </g>
    </g>
</svg>