<?xml version="1.0" encoding="UTF-8"?>
<svg width="24px" height="21px" viewBox="0 0 24 21" version="1.1" xmlns="http://www.w3.org/2000/svg" xmlns:xlink="http://www.w3.org/1999/xlink">
    <!-- Generator: Sketch 59.1 (86144) - https://sketch.com -->
    <title>Eye_Closed@2x</title>
    <desc>Created with Sketch.</desc>
    <g id="V2" stroke="none" stroke-width="1" fill="none" fill-rule="evenodd">
        <g id="CR02.4" transform="translate(-303.000000, -384.000000)">
            <g id="Eye_Closed" transform="translate(303.000000, 382.000000)">
                <rect id="Rectangle" x="0" y="0" width="24" height="24"></rect>
                <path d="M23.89185,11.93995 C23.82735,11.85795 22.27735,9.91645 19.81035,8.13295 C19.58685,7.97145 19.27385,8.02145 19.11185,8.24495 C18.95035,8.46895 19.00035,8.78195 19.22435,8.94345 C21.00835,10.23295 22.31435,11.63895 22.84585,12.24945 C21.73585,13.51945 17.24785,18.24995 11.99985,18.24995 C11.07185,18.24995 10.11085,18.10095 9.14385,17.80695 C8.88035,17.72645 8.60085,17.87595 8.51985,18.13995 C8.43985,18.40495 8.58885,18.68345 8.85335,18.76395 C9.91435,19.08645 10.97335,19.24995 11.99985,19.24995 C18.51835,19.24995 23.67535,12.83345 23.89185,12.55995 C24.03635,12.37845 24.03635,12.12145 23.89185,11.93995" id="Fill-140" fill="#516EEA"></path>
                <path d="M4.46705,16.45115 C4.62205,16.45115 4.77455,16.37915 4.87255,16.24465 C5.03455,16.02065 4.98455,15.70815 4.76055,15.54615 C2.98405,14.25915 1.68405,12.85865 1.15455,12.25065 C2.26405,10.98065 6.75205,6.25015 12.00005,6.25015 C12.77605,6.25015 13.57705,6.35465 14.38055,6.55965 C14.64755,6.62815 14.92005,6.46615 14.98855,6.19915 C15.05705,5.93165 14.89555,5.65915 14.62805,5.59065 C13.74405,5.36465 12.85955,5.25015 12.00005,5.25015 C5.48155,5.25015 0.32455,11.66665 0.10805,11.94015 C-0.03595,12.12165 -0.03595,12.37815 0.10805,12.56015 C0.17255,12.64215 1.71555,14.57565 4.17405,16.35615 C4.26305,16.42015 4.36555,16.45115 4.46705,16.45115" id="Fill-141" fill="#516EEA"></path>
                <path d="M7.5,12.25 C7.5,12.526 7.724,12.75 8,12.75 C8.276,12.75 8.5,12.526 8.5,12.25 C8.5,10.32 10.07,8.75 12,8.75 C12.276,8.75 12.5,8.526 12.5,8.25 C12.5,7.974 12.276,7.75 12,7.75 C9.519,7.75 7.5,9.769 7.5,12.25" id="Fill-142" fill="#516EEA"></path>
                <path d="M15.5,12.25 C15.5,14.18 13.93,15.75 12,15.75 C11.724,15.75 11.5,15.974 11.5,16.25 C11.5,16.526 11.724,16.75 12,16.75 C14.481,16.75 16.5,14.731 16.5,12.25 C16.5,11.974 16.276,11.75 16,11.75 C15.724,11.75 15.5,11.974 15.5,12.25" id="Fill-143" fill="#516EEA"></path>
                <path d="M22.1035,2.1465 C21.908,1.951 21.592,1.951 21.3965,2.1465 L1.8965,21.6465 C1.701,21.8415 1.701,22.1585 1.8965,22.3535 C1.994,22.451 2.122,22.5 2.25,22.5 C2.378,22.5 2.506,22.451 2.6035,22.3535 L22.1035,2.8535 C22.299,2.6585 22.299,2.3415 22.1035,2.1465" id="Fill-144" fill="#516EEA"></path>
            </g>
        </g>
    </g>
</svg>