<?xml version="1.0" encoding="UTF-8"?>
<svg width="48px" height="45px" viewBox="0 0 48 45" version="1.1" xmlns="http://www.w3.org/2000/svg" xmlns:xlink="http://www.w3.org/1999/xlink">
    <!-- Generator: Sketch 59.1 (86144) - https://sketch.com -->
    <title>Important_Notifications</title>
    <desc>Created with Sketch.</desc>
    <g id="V2" stroke="none" stroke-width="1" fill="none" fill-rule="evenodd">
        <g id="CR09.1" transform="translate(-163.000000, -84.000000)">
            <g id="Important_Notifications" transform="translate(147.000000, 66.000000)">
                <g id="Group-4">
                    <rect id="Rectangle" x="0" y="0" width="81" height="81"></rect>
                </g>
                <g id="Group" transform="translate(16.000000, 18.000000)" fill="#4A6CF2">
                    <path d="M24,37.5303 C21.325,37.5303 18.712,37.1463 16.234,36.3893 C15.999,36.3183 15.744,36.3363 15.52,36.4393 L4.904,41.3813 L8.794,33.6143 C9.006,33.1923 8.894,32.6793 8.525,32.3853 C4.317,29.0183 2,24.5373 2,19.7653 C2,9.9693 11.869,2.0003 24,2.0003 C36.131,2.0003 46,9.9693 46,19.7653 C46,29.5603 36.131,37.5303 24,37.5303 M24,0.0003 C10.767,0.0003 0,8.8673 0,19.7653 C0,24.9133 2.355,29.7353 6.65,33.4273 L1.831,43.0513 C1.64,43.4303 1.711,43.8893 2.007,44.1943 C2.2,44.3933 2.46,44.4983 2.725,44.4983 C2.868,44.4983 3.011,44.4673 3.146,44.4053 L16.02,38.4133 C18.577,39.1553 21.259,39.5303 24,39.5303 C37.233,39.5303 48,30.6643 48,19.7653 C48,8.8673 37.233,0.0003 24,0.0003" id="Fill-691"></path>
                    <path d="M15,16 L28,16 C28.552,16 29,15.552 29,15 C29,14.448 28.552,14 28,14 L15,14 C14.448,14 14,14.448 14,15 C14,15.552 14.448,16 15,16" id="Fill-692"></path>
                    <path d="M34,20 L15,20 C14.448,20 14,20.448 14,21 C14,21.552 14.448,22 15,22 L34,22 C34.552,22 35,21.552 35,21 C35,20.448 34.552,20 34,20" id="Fill-693"></path>
                    <path d="M34,26 L15,26 C14.448,26 14,26.448 14,27 C14,27.552 14.448,28 15,28 L34,28 C34.552,28 35,27.552 35,27 C35,26.448 34.552,26 34,26" id="Fill-694"></path>
                </g>
            </g>
        </g>
    </g>
</svg>