<?xml version="1.0" encoding="UTF-8"?>
<svg width="18px" height="21px" viewBox="0 0 18 21" version="1.1" xmlns="http://www.w3.org/2000/svg" xmlns:xlink="http://www.w3.org/1999/xlink">
    <!-- Generator: Sketch 59.1 (86144) - https://sketch.com -->
    <title>Protecting@2x</title>
    <desc>Created with Sketch.</desc>
    <g id="V2" stroke="none" stroke-width="1" fill="none" fill-rule="evenodd">
        <g id="V2Profile01-Copy" transform="translate(-242.000000, -142.000000)" fill="#4A6CF2">
            <g id="Protecting" transform="translate(242.000000, 142.000000)">
                <path d="M10.5270409,10.5595455 C10.3784055,10.6831818 10.3247694,10.8877273 10.3924963,11.0686364 L11.232491,13.3090909 L9.26386701,11.9022727 C9.1847766,11.8459091 9.09250445,11.8181818 8.99977776,11.8181818 C8.90750561,11.8181818 8.81477892,11.8459091 8.73568851,11.9022727 L6.76751903,13.3090909 L7.60751377,11.0686364 C7.67524061,10.8877273 7.62115004,10.6831818 7.47251461,10.5595455 L5.7097984,9.09090909 L8.09069255,9.09090909 C8.29341855,9.09090909 8.4720538,8.95636364 8.52796254,8.76090909 L8.99977776,7.10863636 L9.47204752,8.76090909 C9.52750172,8.95636364 9.70613697,9.09090909 9.90886297,9.09090909 L12.2897571,9.09090909 L10.5270409,10.5595455 Z M10.2520426,8.18181818 L9.43704774,5.32954545 C9.381139,5.13409091 9.20250376,5 8.99977776,5 C8.79705176,5 8.61841652,5.13409091 8.56296232,5.32954545 L7.74796743,8.18181818 L4.45435173,8.18181818 C4.26298929,8.18181818 4.09208127,8.30136364 4.02708168,8.48181818 C3.96208209,8.66136364 4.0166272,8.86272727 4.16344446,8.98545455 L6.64297436,11.0513636 L5.39252766,14.3854545 C5.32207356,14.5727273 5.38252772,14.7840909 5.54116309,14.9063636 C5.69979846,15.0272727 5.91979708,15.0309091 6.08206879,14.9154545 L8.99977776,12.8309091 L11.9174867,14.9154545 C11.9965771,14.9718182 12.0893038,15 12.181576,15 C12.2793026,15 12.3770293,14.9681818 12.4583924,14.9063636 C12.6170278,14.7840909 12.677482,14.5727273 12.6074824,14.3854545 L11.3570357,11.0513636 L13.8361111,8.98545455 C13.9833829,8.86272727 14.037928,8.66136364 13.9729284,8.48181818 C13.9074742,8.30136364 13.7365662,8.18181818 13.5452038,8.18181818 L10.2520426,8.18181818 Z" id="Fill-342"></path>
                <path d="M9,20.0659375 C3.9969,17.4120625 0.9,12.3484375 0.9,6.7939375 L0.9,3.5 L17.1,3.5 L17.1,6.7939375 C17.1,12.3484375 14.0031,17.4120625 9,20.0659375 L9,20.0659375 Z M17.1,2.625 L0.9,2.625 L0.9,0.875 L17.1,0.875 L17.1,2.625 Z M17.55,0 L0.45,0 C0.2016,0 0,0.196 0,0.4375 L0,6.7939375 C0,12.7509375 3.36825,18.1755 8.7903,20.9496875 C8.856,20.9829375 8.928,21 9,21 C9.072,21 9.144,20.9829375 9.2097,20.9496875 C14.63175,18.1755 18,12.7509375 18,6.7939375 L18,0.4375 C18,0.196 17.7984,0 17.55,0 L17.55,0 Z" id="Fill-343"></path>
            </g>
        </g>
    </g>
</svg>