<?xml version="1.0" encoding="UTF-8"?>
<svg width="24px" height="14px" viewBox="0 0 24 14" version="1.1" xmlns="http://www.w3.org/2000/svg" xmlns:xlink="http://www.w3.org/1999/xlink">
    <!-- Generator: Sketch 59.1 (86144) - https://sketch.com -->
    <title>Eye_Open@3x</title>
    <desc>Created with Sketch.</desc>
    <g id="V2" stroke="none" stroke-width="1" fill="none" fill-rule="evenodd">
        <g id="CR02.4" transform="translate(-303.000000, -468.000000)">
            <g id="Eye_Open" transform="translate(303.000000, 463.000000)">
                <rect id="Rectangle" x="0" y="0" width="24" height="24"></rect>
                <path d="M12,18 C6.753,18 2.2655,13.2705 1.155,12 C2.2655,10.7295 6.753,6 12,6 C17.2475,6 21.735,10.73 22.8455,12.0005 C21.7365,13.2705 17.255,18 12,18 M23.892,11.69 C23.6755,11.4165 18.5185,5 12,5 C5.4815,5 0.3245,11.4165 0.108,11.69 C-0.036,11.8715 -0.036,12.1285 0.108,12.31 C0.3245,12.5835 5.4815,19 12,19 C18.5185,19 23.6755,12.5835 23.892,12.31 C24.036,12.1285 24.036,11.8715 23.892,11.69" id="Fill-153" fill="#516EEA"></path>
                <path d="M12,15.5 C10.07,15.5 8.5,13.93 8.5,12 C8.5,10.07 10.07,8.5 12,8.5 C13.93,8.5 15.5,10.07 15.5,12 C15.5,13.93 13.93,15.5 12,15.5 M12,7.5 C9.519,7.5 7.5,9.519 7.5,12 C7.5,14.481 9.519,16.5 12,16.5 C14.481,16.5 16.5,14.481 16.5,12 C16.5,9.519 14.481,7.5 12,7.5" id="Fill-154" fill="#516EEA"></path>
                <path d="M12,9.4995 C11.724,9.4995 11.5,9.7235 11.5,9.9995 C11.5,10.276 11.724,10.4995 12,10.4995 C12.827,10.4995 13.5,11.173 13.5,12 C13.5,12.827 12.827,13.5 12,13.5 C11.173,13.5 10.5,12.827 10.5,12 C10.5,11.724 10.276,11.5 10,11.5 C9.724,11.5 9.5,11.724 9.5,12 C9.5,13.3785 10.6215,14.5 12,14.5 C13.3785,14.5 14.5,13.3785 14.5,12 C14.5,10.6215 13.3785,9.4995 12,9.4995" id="Fill-155" fill="#516EEA"></path>
            </g>
        </g>
    </g>
</svg>