<?xml version="1.0" encoding="UTF-8"?>
<svg width="48px" height="48px" viewBox="0 0 48 48" version="1.1" xmlns="http://www.w3.org/2000/svg" xmlns:xlink="http://www.w3.org/1999/xlink">
    <!-- Generator: Sketch 59.1 (86144) - https://sketch.com -->
    <title>Tailored_For_You</title>
    <desc>Created with Sketch.</desc>
    <g id="V2" stroke="none" stroke-width="1" fill="none" fill-rule="evenodd">
        <g id="CR05" transform="translate(-164.000000, -83.000000)">
            <g id="Tailored_For_You" transform="translate(147.000000, 66.000000)">
                <rect id="Rectangle" x="0" y="0" width="81" height="81"></rect>
                <g id="Group" transform="translate(17.000000, 17.000000)" fill="#516EEA">
                    <path d="M46,46 L2,46 L2,2 L46,2 L46,46 Z M47,0 L1,0 C0.448,0 0,0.447 0,1 L0,47 C0,47.553 0.448,48 1,48 L47,48 C47.552,48 48,47.553 48,47 L48,1 C48,0.447 47.552,0 47,0 L47,0 Z" id="Fill-2212"></path>
                    <path d="M10.293,18.707 C10.488,18.902 10.744,19 11,19 C11.256,19 11.512,18.902 11.707,18.707 L21.707,8.707 C22.098,8.316 22.098,7.684 21.707,7.293 C21.316,6.902 20.684,6.902 20.293,7.293 L11,16.586 L7.707,13.293 C7.316,12.902 6.684,12.902 6.293,13.293 C5.902,13.684 5.902,14.316 6.293,14.707 L10.293,18.707 Z" id="Fill-2213"></path>
                    <path d="M10.293,37.707 C10.488,37.902 10.744,38 11,38 C11.256,38 11.512,37.902 11.707,37.707 L21.707,27.707 C22.098,27.316 22.098,26.684 21.707,26.293 C21.316,25.902 20.684,25.902 20.293,26.293 L11,35.586 L7.707,32.293 C7.316,31.902 6.684,31.902 6.293,32.293 C5.902,32.684 5.902,33.316 6.293,33.707 L10.293,37.707 Z" id="Fill-2214"></path>
                    <path d="M25,18 L41,18 C41.552,18 42,17.553 42,17 C42,16.447 41.552,16 41,16 L25,16 C24.448,16 24,16.447 24,17 C24,17.553 24.448,18 25,18" id="Fill-2215"></path>
                    <path d="M25,36 L41,36 C41.552,36 42,35.553 42,35 C42,34.447 41.552,34 41,34 L25,34 C24.448,34 24,34.447 24,35 C24,35.553 24.448,36 25,36" id="Fill-2216"></path>
                </g>
            </g>
        </g>
    </g>
</svg>